<svg width="32" height="32" viewBox="0 0 32 32" fill="none" xmlns="http://www.w3.org/2000/svg">
<path d="M25.5869 16.9589L11.192 30.8014C11.0598 30.9286 10.8804 31 10.6934 31C10.5064 31 10.327 30.9286 10.1948 30.8014L6.20651 26.9655C6.07429 26.8384 6 26.6659 6 26.4861C6 26.3062 6.07429 26.1338 6.20651 26.0066L16.6119 16L6.20651 5.9934C6.07429 5.86624 6 5.69377 6 5.51394C6 5.33411 6.07429 5.16164 6.20651 5.03448L10.1948 1.19859C10.327 1.07144 10.5064 1 10.6934 1C10.8804 1 11.0598 1.07144 11.192 1.19859L25.5869 15.0411C25.7179 15.167 25.8218 15.3165 25.8926 15.481C25.9635 15.6456 26 15.8219 26 16C26 16.1781 25.9635 16.3544 25.8926 16.519C25.8218 16.6835 25.7179 16.833 25.5869 16.9589V16.9589Z" fill="black"/>
</svg>
