<svg width="32" height="32" viewBox="0 0 32 32" fill="none" xmlns="http://www.w3.org/2000/svg">
<path d="M15.0411 25.5869L1.1986 11.192C1.07144 11.0598 1 10.8804 1 10.6934C1 10.5064 1.07144 10.327 1.1986 10.1948L5.03448 6.20651C5.16164 6.07429 5.33411 6 5.51394 6C5.69377 6 5.86624 6.07429 5.9934 6.20651L16 16.6119L26.0066 6.20651C26.1338 6.07429 26.3062 6 26.4861 6C26.6659 6 26.8384 6.07429 26.9655 6.20651L30.8014 10.1948C30.9286 10.327 31 10.5064 31 10.6934C31 10.8804 30.9286 11.0598 30.8014 11.192L16.9589 25.5869C16.833 25.7179 16.6835 25.8218 16.519 25.8926C16.3544 25.9635 16.1781 26 16 26C15.8219 26 15.6456 25.9635 15.481 25.8926C15.3165 25.8218 15.167 25.7179 15.0411 25.5869V25.5869Z" fill="black"/>
</svg>
