<svg width="24" height="24" viewBox="0 0 24 24" fill="none" xmlns="http://www.w3.org/2000/svg">
<path d="M23.2683 20.44L16.6719 13.8437C17.8556 11.9645 18.3052 9.7151 17.935 7.52532C17.5648 5.33553 16.4007 3.35894 14.6651 1.97331C12.9295 0.58767 10.7442 -0.10984 8.52681 0.0140781C6.30941 0.137996 4.21542 1.07465 2.64504 2.64504C1.07465 4.21542 0.137996 6.30941 0.0140781 8.52681C-0.10984 10.7442 0.58767 12.9295 1.97331 14.6651C3.35894 16.4007 5.33553 17.5648 7.52532 17.935C9.7151 18.3052 11.9645 17.8556 13.8437 16.6719L20.4401 23.2683C20.533 23.3612 20.6432 23.4349 20.7645 23.4851C20.8859 23.5354 21.0159 23.5612 21.1472 23.5612C21.2786 23.5612 21.4086 23.5354 21.5299 23.4851C21.6513 23.4349 21.7615 23.3612 21.8544 23.2683L23.2684 21.8542C23.4559 21.6666 23.5612 21.4123 23.5612 21.1471C23.5612 20.8819 23.4559 20.6275 23.2683 20.44ZM9.06134 15.0613C7.87465 15.0613 6.71461 14.7094 5.72792 14.0502C4.74122 13.3909 3.97219 12.4538 3.51806 11.3574C3.06393 10.2611 2.94511 9.05468 3.17663 7.8908C3.40814 6.72691 3.97958 5.65781 4.8187 4.8187C5.65781 3.97958 6.72691 3.40814 7.8908 3.17663C9.05468 2.94511 10.2611 3.06393 11.3574 3.51806C12.4538 3.97219 13.3909 4.74122 14.0502 5.72792C14.7094 6.71461 15.0613 7.87465 15.0613 9.06134C15.0596 10.6521 14.4269 12.1772 13.3021 13.3021C12.1772 14.4269 10.6521 15.0596 9.06134 15.0613V15.0613Z" fill="#01B4E4"/>
</svg>
